/* XPM */
static char *_fc233f9d163439ddc4f646b44536419AWXTQbV8q4aIzIdB[] = {
/* columns rows colors chars-per-pixel */
"44 44 193 2 ",
"   c #180E09",
".  c #1C110E",
"X  c #210C0D",
"o  c #231513",
"O  c #2B1615",
"+  c #241A16",
"@  c #2A1A16",
"#  c #26171A",
"$  c #261C19",
"%  c #2B1D1B",
"&  c #311E1D",
"*  c #3F1F1F",
"=  c #2D211E",
"-  c #32221E",
";  c #2E2320",
":  c #332423",
">  c #3A2524",
",  c #342925",
"<  c #3B2926",
"1  c #3A2728",
"2  c #3C2C2A",
"3  c #3D312E",
"4  c #3E3433",
"5  c #3D3538",
"6  c #412A26",
"7  c #482925",
"8  c #432D2B",
"9  c #532C2C",
"0  c #41312E",
"q  c #48312D",
"w  c #443332",
"e  c #4B3433",
"r  c #463935",
"t  c #4B3A36",
"y  c #4C373A",
"u  c #4C3D3C",
"i  c #523533",
"p  c #573636",
"a  c #533A36",
"s  c #583837",
"d  c #533C3B",
"f  c #5A3D3C",
"g  c #623A37",
"h  c #613B38",
"j  c #49403E",
"k  c #54423E",
"l  c #5A423E",
"z  c #63433F",
"x  c #6E443F",
"c  c #4A3E42",
"v  c #573E41",
"b  c #593F41",
"n  c #673E40",
"m  c #4D4244",
"M  c #554342",
"N  c #5B4443",
"B  c #5C4846",
"V  c #5C4B4A",
"C  c #634544",
"Z  c #6C4443",
"A  c #634A46",
"S  c #6B4B46",
"D  c #65454A",
"F  c #6B4349",
"G  c #644C4B",
"H  c #6B4C4C",
"J  c #734547",
"K  c #794746",
"L  c #724946",
"P  c #744C4B",
"I  c #7B4D4C",
"U  c #64514D",
"Y  c #6A514C",
"T  c #73514E",
"R  c #7A534D",
"E  c #744F53",
"W  c #7B4D52",
"Q  c #635252",
"!  c #6D5453",
"~  c #6C5A55",
"^  c #6E5759",
"/  c #6B5C58",
"(  c #735453",
")  c #7C5452",
"_  c #745A54",
"`  c #7B5A55",
"'  c #745659",
"]  c #7E555A",
"[  c #745C59",
"{  c #7C5D5B",
"}  c #7D615D",
"|  c #7D5F62",
" . c #6F6161",
".. c #746163",
"X. c #7B6462",
"o. c #7F6867",
"O. c #7D6C6D",
"+. c #844C4B",
"@. c #82524F",
"#. c #835453",
"$. c #8A5554",
"%. c #835A56",
"&. c #8A5A55",
"*. c #855359",
"=. c #8A555A",
"-. c #845C5B",
";. c #8B5D5B",
":. c #945C5A",
">. c #985F5E",
",. c #816057",
"<. c #85625D",
"1. c #8B625D",
"2. c #93625E",
"3. c #9B625F",
"4. c #845E61",
"5. c #8D5E62",
"6. c #945F60",
"7. c #846462",
"8. c #8C6563",
"9. c #846964",
"0. c #8D6B65",
"q. c #856768",
"w. c #8D6469",
"e. c #846D6A",
"r. c #8C6C6C",
"t. c #936563",
"y. c #9B6563",
"u. c #936A66",
"i. c #9C6A65",
"p. c #966569",
"a. c #996669",
"s. c #946C6B",
"d. c #9C6D6B",
"f. c #8D716D",
"g. c #94716D",
"h. c #9C726E",
"j. c #8D6F70",
"k. c #956E70",
"l. c #9B6F71",
"z. c #8C7371",
"x. c #937373",
"c. c #9C7472",
"v. c #907877",
"b. c #9F7975",
"n. c #967778",
"m. c #9F7678",
"M. c #947B7A",
"N. c #9B7D7E",
"B. c #A46664",
"V. c #AA6765",
"C. c #A16966",
"Z. c #A36D6C",
"A. c #AB6D6C",
"S. c #A2716F",
"D. c #AA716F",
"F. c #B0716F",
"G. c #A16F70",
"H. c #A47472",
"J. c #AA7473",
"K. c #A47975",
"L. c #AB7977",
"P. c #AF777A",
"I. c #A57A7A",
"U. c #AC7B7A",
"Y. c #B37574",
"T. c #B57977",
"R. c #B07778",
"E. c #B27C7C",
"W. c #BB7B7A",
"Q. c #9A837F",
"!. c #AD817E",
"~. c #B4817D",
"^. c #B9817F",
"/. c #8F7F80",
"(. c #AA7F82",
"). c #B37E81",
"_. c #AD8181",
"`. c #A38F8F",
"'. c #B48382",
"]. c #B98484",
"[. c #B68986",
"{. c #B98987",
"}. c #B68589",
"|. c #B8878A",
" X c #B68989",
".X c #BC8C8B",
"XX c #BF8C90",
"oX c #AD9898",
"OX c #C68A8A",
"+X c #C08C8D",
"@X c #C1918E",
"#X c #C28E91",
"$X c #C49291",
/* pixels */
"` ,.1.0.h.h.!.S.H.I.!.U.(.}. XXX X|.|..X.X.X@X@X@X+XXX|.|.(.U.I.x.x.k.w.-.] H ( 8.&.I K ",
"_ ` 1.0.g.h.g.h.c.K.K.U.'.|. X X X.X.X@X@X@X@X$X#X#X|..X'.I.I.n.j.E b v a i i i g L I K ",
"T _ ` } <.f.g.0.g.r.m.c.(.}.}. X[..X+X.X@X@X@X.X$X}.I.N.q.E G B y y 1 1 1 1 < 8 7 7 g J ",
"l q q a l ~ z k a i C ! 7.p.(._.[.{.{.{.{.{..X{.'.I.k.| b 6 w 1 , : : $ 8 y b D p 9 9 J ",
"- - - - = - < < - , w N i [ k.m._.[.[.'.{.'.|.'.I.s.' D e w & # % 8 b [ r.j.z.[ R H P W ",
"- j B l l r 2 - = = < d f ( 7.g.K.[.'.~.{.~.U.L.s.8.' G e 8 d H X.v./.m.n.n.k.w.] ( P I ",
"A _ } 9.f.Q.} / B t e M B X.} g.c.!.!.{.{.'.U.K.s.7.{ E ( q.j.x.M./.(.n.n.j.k.w.%.R J P ",
"_ <.f.f.Q.Q.Q.Q.v.f.e.7.{ } } f.n.K.!.[.{.~.U.H.s.4.{ 4.j.w.| ^ v y y v B ( -.4.` ' I W ",
"_ <.f.v.v.O.} G Q [ [ 9.9.7.<.8.f.b.I.!.'.!.L.s.-.' } <.Y D v c j 5 m m ..u O 8 Z P P R ",
"} } ! e 2 c 4 m k u k Y ( } ' ( { u.c.K.!.U.c.u.P E 7.8.7.{ oXQ j 5 5 m O.^ d * s Z ) %.",
"_ s & ! Q.Q c 5 c  .`._ -.c.0.( T %.s.K.!.H.s.7.F -.b.) P x.f.G M y u u D n F h g x %.;.",
"z p l B O.V m ; m Q M.q.S _ c.,.S T 0.h.b.h.d.5.C w.c.g.<.) ( _ ' X.! ' { ( I K @.$.&.:.",
"x a l l l a l G ! ! ( ] 8.c.h.T Z R u.h.H.h.S.d.Z F s.c.s.5.-.s.x.s.8.8.1.,.@.@.&.1.:.2.",
"S S L ` <.<.9.f.j.7.w.4.u.s.R x Z ) u.H.S.Z.S.d.*.n P u.l.d.s.p.h.c.s.p.u.1.2.2.3.2.2.&.",
"S ` ,.,.<.8.u.g.k.k.p.s.s.] L Z P %.i.H.H.S.Z.Z.p.J F W k.I.L.U.I.I.K.K.h.h.i.h.3.3.2.&.",
",.1.0.g.g.h.H.K.I.(.(.H.s.-.P L ) <.t.Z.S.Z.Z.Z.Z.=.J ] 5.l._._.}.}.L.L.K.S.S.C.i.3.3.3.",
"<.<.0.h.h.h.H.I.U.U.K.H.h.%.R R ,.-.i.i.G.Z.Z.Z.A.=.#.*.p.p.i.l.J.J.I.P.Z.Z.S.C.i.B.2.3.",
"<.2.u.u.g.d.h.d.K.K.H.S.2.%.R ` %.&.8.i.Z.D.J.A.V.>.+.$.y.p.i.d.G.G.G.G.S.Z.C.C.B.3.3.3.",
"1.0.t.8.u.i.Z.G.H.H.S.h.2.1.` R ) %.:.t.Z.J.J.D.A.B.+.$.a.Z.G.H.Z.G.J.G.D.Z.Z.C.B.i.3.3.",
"<.2.8.u.d.h.G.G.G.G.S.S.u.2.R R ) ;.;.a.S.T.Y.D.A.A.+.$.y.Z.H.H.J.G.J.L.J.J.A.Z.i.B.3.2.",
"1.1.u.h.G.H.J.H.Y.J.J.H.i.1.` R &.%.1.i.L.W.Y.A.V.V.:.+.d.R.).E.U.R.R.P.J.J.D.Z.C.y.6.>.",
"1.u.h.S.J.K.U.T.T.L.T.L.!.h.x x -.-.2.Z.E.^.T.F.V.B.3.+.C.).).).T.U.T.E.Y.L.S.J.Z.C.y.>.",
"u.d.S.K.U.T.E.E.~.U.'.~.~.i.x %.1.1.i.D.^.OXW.F.V.V.B.:.6.W.).].W.E.T.L.U.L.J.Z.S.Z.B.6.",
"i.S.H.J.U.E.].'.'.].].~.~.2.R <.1.1.h.D.].OXOXA.V.V.A.C.=.E.).OX].~.E.T.L.L.H.H.H.Z.d.6.",
"h.S.J.U.U.E.).].].].~.~.~.1.%.2.u.u.d.H.'.+XU.Z.>.y.d.6.$.U.].^.].~.W.E.U.L.K.h.d.d.p.6.",
"d.H.K.L.U.E.].).].'.^.~.L.2.) <.,.<.0.h.l.G.s.;.-.5.;.%.;.K.U.E.E.~.E.U.T.H.S.S.c.d.p.;.",
"d.c.H.K.U.U.T.E.~.~.U.K.S.g.R z G l ! 7.7.7.4.C n E H P h.H.S.S.S.H.H.L.L.H.d.h.Z.s.t.&.",
"h.c.S.H.K.L.J.K.K.L.K.H.u.` a 6 O & d G D H N G G d b F g.g.h.h.u.u.u.h.c.H.h.h.s.p.8.%.",
"i.g.i.h.H.H.c.c.h.u.0.R H a 2 % - = w k ~ Q B u 1 & > a Y 8.) -.1.<.0.h.b.H.h.h.u.8.;.' ",
"g.i.S.h.c.u.0.,.T l 8 q l - @ o $ ; ; ; 3 j w : : o % > a f s C A S Y T ` 8.h.g.u.1.) J ",
"1.u.u.g.0.T l l 7 8 : < 2 % ; ; o ; = o 4 , $ + 5 $ , % 6 6 6 > q a B Y } g.g.u.0.8.` x ",
"1.0.g.1.z 7 - @ % , 2 3 = , =   + 3 ; = u 2 + # $ : = % 2 N < O - < - 6 A S ,.0.0.} T S ",
"0.0.u.,.7 t = 3 = = = = 3 + = + ; , # & w ; # = = : ; % % 3 3 # % % : : 3 q T <.<.9.H C ",
"0.0.0.l k - , - = - , 0 < , j @ 1 % & c 2 $ 1 3 : : : # % w : # % # $ $ 2 G Y 1.} _ a i ",
"9.f.0.x a < 3 - 6 r q l 2 6 q 7 e d w.F 8 d D ' 8 8 8 , 1 y r % % 1 2 ; < G f.0.9._ q d ",
"` 0.9.` t , r 3 U l q q i k U x ' 4.w.4.4.5.-.H D 9 e > w w w 3 w V c 1 < B z.g.<.U q q ",
"x o.} Y U - , a _ [ Y l l z z S P W *.6.a.5.*.W F n v 9 y v Q | ^ y 1 2 1 X.x.{ H d e 2 ",
"l ~ Q.} ~ - , l Y ! _ ( S R %.-.*.5.=.=.*.*.*.*.*.4.E E E E | | ! v 2 % M o.z.[ e 6 t > ",
"k x 9.} ~ @ - t k U Y _ 7.7.8.8.7.t.p.p.a.p.p.5.5.w.4.| q.| ' ! B t O % Q o.X.} d < 0 , ",
"q _ o./ r @ 3 / k k M U Y ' { x.4.k.k.k.m.m.c.m.k.w.w.| | D ! ' ^ w : % M | [ V M : < 6 ",
"k / o.} 3 = , j j V r r q k q M V M d } Y B X.Q M b M C U l x Y d k , ; 3 Q ^ v 8 w > 6 ",
"l } } z @ = w k r t 0 2 k - = 3 , = 2 U r r - w 2 % & e U ~ z l k w : ; 4 r V w 2 e > : ",
"x ~ } q @ , - 3 k t 0 0 k . . = $ + u u r 2 % = 1 X X a l l l k l t 2 . , , y r e 3 1 % ",
"l / } < - = = r t - r < k j =   = # 5 w 8 o : # ; % - B k ~ z j k M : = ; ; w c 2 8 1 & "
};
