/* XPM */
static char *f1e480a7ee00479ebcf2484647e5dc3dGJe45aCcl2SR8bBj[] = {
/* columns rows colors chars-per-pixel */
"64 64 256 2 ",
"   c #560901",
".  c #541205",
"X  c #670701",
"o  c #780601",
"O  c #7B0B01",
"+  c #6A1706",
"@  c #751B05",
"#  c #732B0D",
"$  c #870901",
"%  c #8C0D01",
"&  c #990500",
"*  c #940C01",
"=  c #9B0B01",
"-  c #831503",
";  c #891904",
":  c #921202",
">  c #9A1403",
",  c #991B05",
"<  c #A40400",
"1  c #AA0700",
"2  c #A40D02",
"3  c #AB0B01",
"4  c #B80300",
"5  c #B20B01",
"6  c #BC0C01",
"7  c #A61604",
"8  c #AC1303",
"9  c #A41A03",
"0  c #AD1C03",
"q  c #B31402",
"w  c #BB1302",
"e  c #B41A04",
"r  c #BD1B04",
"t  c #892708",
"y  c #992707",
"u  c #8E360B",
"i  c #9A380D",
"p  c #943A15",
"a  c #AC2506",
"s  c #A72708",
"d  c #B32304",
"f  c #BC2205",
"g  c #B72A06",
"h  c #B42609",
"j  c #BD2609",
"k  c #B42C0A",
"l  c #BA2C0B",
"z  c #A9360D",
"x  c #B7350A",
"c  c #BA340C",
"v  c #B13C0D",
"b  c #A22F11",
"n  c #A33A12",
"m  c #B63912",
"M  c #C50500",
"N  c #CB0400",
"B  c #C40D01",
"V  c #CB0D01",
"C  c #D80500",
"Z  c #D40C01",
"A  c #DB0C01",
"S  c #C21202",
"D  c #CB1403",
"F  c #C41B04",
"G  c #CA1B04",
"H  c #C71E09",
"J  c #D31403",
"K  c #DB1402",
"L  c #D41C03",
"P  c #DD1B03",
"I  c #D31A09",
"U  c #E20500",
"Y  c #EC0500",
"T  c #E40C01",
"R  c #EC0A00",
"E  c #F20500",
"W  c #FE0600",
"Q  c #F40E01",
"!  c #FD0C01",
"~  c #E31302",
"^  c #EC1402",
"/  c #E41D04",
"(  c #EC1B04",
")  c #EE1D08",
"_  c #F41402",
"`  c #FD1301",
"'  c #F41C04",
"]  c #FD1C03",
"[  c #F21F08",
"{  c #C32305",
"}  c #CB2305",
"|  c #CA2A06",
" . c #C42309",
".. c #C52A0A",
"X. c #CC2A0A",
"o. c #D32204",
"O. c #DB2305",
"+. c #D32D05",
"@. c #D92907",
"#. c #D42C0B",
"$. c #DA2D0A",
"%. c #C2350C",
"&. c #CA340C",
"*. c #C43808",
"=. c #CB3D0B",
"-. c #D63506",
";. c #D3350C",
":. c #DB350B",
">. c #D43B0B",
",. c #DB3C0D",
"<. c #C63B12",
"1. c #D63811",
"2. c #E32406",
"3. c #EC2304",
"4. c #E82708",
"5. c #E12B09",
"6. c #EB2B09",
"7. c #FC2303",
"8. c #F42B06",
"9. c #FC2C05",
"0. c #F32309",
"q. c #F82508",
"w. c #F32C09",
"e. c #FD2B0A",
"r. c #E4330B",
"t. c #E93709",
"y. c #EC350C",
"u. c #E43D0C",
"i. c #F33204",
"p. c #FE3C06",
"a. c #FD330A",
"s. c #F83409",
"d. c #F43B0C",
"f. c #FD3B0B",
"g. c #E93912",
"h. c #FB3A12",
"j. c #9A4315",
"k. c #9A5611",
"l. c #AC450E",
"z. c #BB460B",
"x. c #BA500C",
"c. c #AA4917",
"v. c #B84715",
"b. c #B9581B",
"n. c #AA5621",
"m. c #A95B24",
"M. c #B15422",
"N. c #BA6522",
"B. c #BC6631",
"V. c #CC430C",
"C. c #C6480A",
"Z. c #D5440B",
"A. c #D8490A",
"S. c #CA530D",
"D. c #D7550D",
"F. c #C54715",
"G. c #D74815",
"H. c #D34C14",
"J. c #C95619",
"K. c #D35914",
"L. c #DB5B14",
"P. c #D95618",
"I. c #D25D1C",
"U. c #E7460B",
"Y. c #F74609",
"T. c #FD430C",
"R. c #E7580A",
"E. c #F95809",
"W. c #E74813",
"Q. c #F94615",
"!. c #F24C15",
"~. c #FD4B12",
"^. c #E45214",
"/. c #EB5C14",
"(. c #E1531B",
"). c #E65919",
"_. c #EC5B1B",
"`. c #F75516",
"'. c #FE5B14",
"]. c #FF5B1A",
"[. c #C9631B",
"{. c #DC6315",
"}. c #D76916",
"|. c #DC651B",
" X c #DB6C1D",
".X c #D7741D",
"XX c #E8680C",
"oX c #F9650C",
"OX c #EE7409",
"+X c #FA740A",
"@X c #EC6412",
"#X c #E66818",
"$X c #EC6B1C",
"%X c #F26414",
"&X c #FE6315",
"*X c #F86A14",
"=X c #F4651A",
"-X c #FD641A",
";X c #F46C1A",
":X c #FE6C1B",
">X c #EB7619",
",X c #F87817",
"<X c #F2741C",
"1X c #FC741A",
"2X c #C45723",
"3X c #D95B24",
"4X c #E25A22",
"5X c #FC5920",
"6X c #CB6823",
"7X c #DD6521",
"8X c #D76923",
"9X c #C77728",
"0X c #D87828",
"qX c #C87D33",
"wX c #D87B32",
"eX c #E36C22",
"rX c #E86924",
"tX c #F96924",
"yX c #EB7C23",
"uX c #E87729",
"iX c #FA7325",
"pX c #F67C24",
"aX c #FB7A23",
"sX c #FC742B",
"dX c #F6792A",
"fX c #F37B34",
"gX c #F88F14",
"hX c #F8891A",
"jX c #D8832C",
"kX c #D98936",
"lX c #DE9839",
"zX c #EA862A",
"xX c #F48223",
"cX c #FC8423",
"vX c #F38B25",
"bX c #FD8D25",
"nX c #F1832B",
"mX c #FE862D",
"MX c #F4892D",
"NX c #FC8B2B",
"BX c #F9952A",
"VX c #E58934",
"CX c #F78835",
"ZX c #ED9736",
"AX c #FC9334",
"SX c #F49B34",
"DX c #FC9C33",
"FX c #F7973A",
"GX c #FBAE32",
"HX c #F9A63A",
"JX c #E79A41",
"KX c #F99D44",
"LX c #EEAF4D",
"PX c #F8A944",
"IX c #FDB949",
"UX c #EFC762",
/* pixels */
"w.!.5X!.-.2.7.] /  .W.<XBX<XxXnXuXJ.} ( ^ w.T.&XMXJXkXVX#Xu.3.J 5  .$.6.7.e.h.4XF.|.l.; B C 1 D 9.p.T.9.} 7 D B > y b.x.p t S ] ",
"U.tXeXv.k o.i.i.+.D 2.d._.^.eX7XW.2.D V G d.-XmXFXjXN.|.P.U.H 6 J a.W.V.| ..F.2Xb.uXc.h A ! 2.Q.'.1X:XS.V.>.8.~ 3 8  .h , B Q ] ",
"(.sXJ.h 0 +.p.R.F.} ' ' { s h o.L > $ % 7 y.].nXMX9XJ.L.U.| > > I h.rXH.c j &.F.2XF.m I ` 7.Q.pX1XbXyX#XtX=XQ./ 6 Z ^ Q A ! ` 9.",
"!.tX(.&.t.i.E.R.R.&.G B X   - 0 g t t y I 6.Q.#XeXI.=.;. .7 > f s.Q.).6XH.@.4.g.,.:.2.] ] T.^.uXhXvX$X).=X:X/.| 8 Z ! ! ^ ] 7.e.",
"!.tXrX3X3XsXaXcXhX@X+.w X o o.T.&XyX8XZ.3.] 7.6.;.;.} 8 & 0 :.$.g.6.#.1.g.4.[ q.q.' A ` 3.Z.S.|.$X=XL.P.|.}.[.m a S ` R D 2.9.9.",
"h.(.G.2X4XsX1XvXgX,XA./ 4 K p.+XNXPXCX).w.` ! M = 2 * o * X.!.>.:.) _ [ 0.) [ ] ~ S 3 B 9 n l.rXdXiX/.L.).L.A.*.{ K ^ K r 5.i.s.",
"Q.tXP.2X3XfXmXJXBXZXP.7.` 7.E.1XpXFXwXL.w.` N X o w r 2 w 2.6.+.) ` ` ` ) P 0.w.f : > q s v R.1XmXaX*XNXxX#XZ.-.$.] _ A Z 3.i.d.",
"/.`.^.=.V.(.rXVXBXVX^./ w 5./.@X=X,XrXH.0.A 2 O 0 g.;. .K ` ] q.7.L h l h j #.j h e 7.i.a x `.BXHX,X1XDXZX8X>.2.O.H D M Q ] 9.E.",
"[.OX,X/.#X=XpXCXVXrXk O $  .V.D.@X>XJ.X.~ K 0 a U.'.P.l D K ] 2.d i b.eXP.&.%.r 5.e.h.G.p m Z.H.#X@XsXKX6XF.y.e.e.o.S N ! ] 9.C.",
"k.}.>X,X>X$X$XL.G.X.- o 4 ~ 3.;.=.m h J ! 0.<.C.;X=X^.+.r f *.Z.A.{.sXmXfX3Xv.#.h.Q.(.b.p s 3.#.V.<.H.v.n 1.h.h.f.} 6 A ` ` e # ",
"u C.R.*X}.L.A.V.j 8 2 V ! ` ^ J B B A ` q.u.S.XX,XR.W.$.m x.{.XXE.*XaXMXZX Xv.5.h.^.2X#XJ.#.] 6 ; , H H j 5.!.5XQ.H 3 A ~ _ S ; ",
"{ @.t.G.c.x | } F I 3.i.9. .O $ 1 4 Q 9.,.).yXbX>XH.d.f.(.;XoXR.E.oX;X<XMX>XI.t.~.3XuX<X#Xt.` M % 8 I ) #.G.J.F.b : $ 5 / 9.9.&.",
"l 2.7.P 8 6 A J 4.Y.!.E.%Xc.@ % 4 U 7.u.J.nXPXZX#X-.s.!.uXSXbX*XR.R.D.}.hXOXK.=.W.#XhXxX$Xd./ J O.3.8.g.V.G.b s - : > e r.E.E./.",
"v.,.q.( 5 4 M K T.*X1X+XgXjXn w U ` i.G._.nXJXwXF.t.d.R. XzX0X[.S.V.V.A.D.>XS.v >.L.,XnXJ.>.r.T.tXh.p.!.Z.;.0 8 F w.d.R.oX+XOX}.",
"b.P.W.+.> < C 9.sXPXIXhXGX#Xz.J ! 7.T.E.tX8Xb.c O.8.Y.*X*X.X[.b.z.Z.U.Y.oXR.z.d o.r./.K.l.*.~.:XnX$.6.-.+.0.J q 5.`.tX>XZXDX.XS.",
"A.U.@XC.# & A p.aXAXFXSXJXN.z P ` p.E.1X{.l.j ^ ] f.&XhX,X+XD.R.R.Y.E.E.oXA.g P ` ] @.g y x :.iXVXJ % * ^ ` K y `.AXHXvXHXAX.XA.",
":XiXKX0Xx A ` i.8X9XjX0XqXj.h ^ ] p.^.F.u @ S ! ] U.$XBXAXBX,X,XpX$X<X@XL.*.} ! ! 1 = 5 B K ` E ~ 9 X * Q ` 7 u #XBXjX9XkXKXVXK.",
"tXfXSX X*._ Z s A.D.{.[.n.i G ! ` f # # + * U W 7 i |.SXHXHXSXSXLXBXZXJ.v } 7.7.L + : A E Q / V J Z.x f / e t i #XzXN.J.eXmXHX#X",
"CXAXfXJ.-.P % t ).;X&XS.y e ^ W ! =   X 3 Z W Y q v >XIXLXHXLXUXUXJX[.&.} ) p.T.U.v ,.9.] | 9 S 7.].tX>.O.e , z.L.6XF.;XhXBXBX0X",
"eXyX#XXX*.F = e 1.U.V.u - A W E Y < X 8 7.7.] ^ S g ).DXlXqX9X.X[.v...' 2.a.tX5X;XrX%X~.r.l y F 9.].;XV.| F } U.&X-X*X*XbXBXzX8X",
"xXvXvX7Xz.e 1 A 3.4.O.> 1 N E C C < : d.`.Y.T.4.K P 6.^.b.j.v <.1.3._ ' d.-XAXsXsXfXVX).>.*.s F $.iXbX:XU.+.@.W.sXKXKXHXHXvXxXuX",
"XX,XhX|.%.J Y E ! ` ` B 4 < M C ! G m dXnX:XcX).2.` ^ 2.j { O./ _ A D 4.].mXKXrX4X(.B.m <..., > %.1XhXbX>XH.:.W.tXKXKXmXFX9X.X.X",
"@X<XpX7X;._ W W _ 7.w...a : M Q 7.h.uXFXkXzXHXuX#.` U R D ( ( A B 4 G Y.iXdXwX3XG.<.p t l F : $ &.cXGXGXvX[.1.g.5XtXnXFXZXN.S.{.",
"R.;X1XuX:.J Y ` 9.~.`.W.Z. .) a.5XsXAXSXwX.XnX XX._ M U ^ 6.#. .S Z o.W.fX3XM.v.1.j - $ J T M = 5.:XAXHXZX8Xu.e.g.!.1XbXxXN.@X1X",
"eXdXfXwXm S _ 9.&X:X$XP.Z.r.f.tXfXwXCXFX0X6X|.K.| w $ 8 a l.v.l P Q ] 9.x # u m +.S % < ~ ! Q 4 ( Y.)..X0X[.1.3.q.W.sXPXkX[.$XxX",
"$X#XI.c.b o.h.&XDXAX).-.P 2.~.uXm.j.8XKXlX6XK.A.s . . t C. X#XF.3.` ! > + + : D ^ K R ] 7.7.( q A 0.+.D.uX7Xc  .4.<.8X3Xj.c.}.yX",
"H.m c ..y.!.sXmXAXuXV.0 5 F Y.J.p F.*XbX0Xb.C.+.9 @ i 4XaXHXMXJ.} R 4     % D Q ` 7.a.Y.Y.U...d o.' O.>.H.F.z %.,.m m l s z z.P.",
"h , } e.!.5XrX6XM.# + X $ e ].dX8XoXhXHXwXc.a w 2 j tXKXIXIXjXI.+.4 X   ; H _ _ ] f.E.&X/.C.Z.A.R.d.L L G | l c <.k w ~ J e r O.",
"V 2 ( e.!.3Xv.t - O % & 4 O.].FX0X<XhX>Xl.y 8 Z P f.iXHXIXJXm.x.s * X - X.0.` ` F U.pXBX#XD.E.oXhXXXk 8 B D j l | e T ! A V T ` ",
"C 3 / 1.m z b e D M 4 M U I G.kXN.x.x.v.h 7 B _ 7.E.bXGXDXjXN.C.h = 2 I 0.[ Q B a U.,XcX#XD.XXgXBX{.x w B B 8 w L / ` ( 6 D ! W ",
"& $ 0  .X.o./ ) ] ] D U W B > y t s f L K 2 B ` 9.&XNXGXFXkX6Xv d 5 K ' ] T M 6 e G.<XbXhX>X+X+X,X<XA.O.^ T I q.q.9.a.d.g o.[ R ",
"= 7 H I ) ] e.h.Q.W.%.I E 4 $ 2 J / ' ` Q 3 D ` 4.L.nXzXjXn.n f / 2.h.h.5.G V T P :.%X+X>XXX,XbXHXzXH.3._ ] 9.T.!.-X'.-XZ.@.0.K ",
"3  .$.0.] e.h.4XJ.{.n ; M U 5 D 9.p.T.9.} 7 D B > i v.x.j.t S ] w.!.].!.>.5.] ] (  .W.;XAX,XpXnXuXJ.o.~ _ 9.T.&XMXZXVXVX@Xu.2.V ",
"I a.W.=.X.X.<.B.b.uXc.h Z ` / T.'.1X*XS.V.,.6.^ 3 q  .h > B Q 7.W.tX7XF.k o.i.i.+.D 2.d./.P.eX|.W.@.D V F d.&XmXJXjXN. X).W.G w ",
"P h.$XK.%.j <.F.2XF.m I ` 7.d.yX1XhXpX XtX=XQ.P 6 Z ^ Q A ! ` 7.(.sXJ.s a @.Y.A.F. .' ' | y h I L > $ % 0 y.].CXCX9XJ.L.W.| > > ",
"s.Q.3X2XH.@.6.r.,.:.2.] ] T.P.zXxXNXeX/.=X:X_.| 3 V ! ! ^ ] 7.a.!.tX(.#.r.i.E.E.R.*.L B X   - 0 g t t y D 6.Q.rXeX[.<.+.F 7 > f ",
"y.6.$.1.g.) [ e.0.' A ` 3.Z.C.|.%X%XL.P.|.}.[.c a S ! Q D 2.i.9.!.5X3X3X).sXiXcXOX@X-.q X O L p.&XyX8X,.3.] 7.6.>.&.G 8 * e $.$.",
":./ _ [ 0.4.[ ] ( B 1 B s n l.tXdXdX/.L.R.L.A.*.f K _ J r 5.8.a.g.4X3X2X#XsX1XpXgX>XA./ B K p.1XbXPXCX#Xw.` ! M = 8 * o * #.!.Z.",
"0.` ` ` ( P 3.6. .: > 8 y v /.1XmXaX*XvXnX#XZ.>.5.0._ A J ) i.p.Q.tXP.2X3XfXmXJXSXHXL.7.Q 7.E.1XsXFX0XL.i.! N X O w w 2 q / 5.+.",
"] L h l j j #.j h r 7.w.a x E.BXHXaXaXDXJX|.>.2.O.} D N R ] i.E./.`.^.C.V.P.$XZXSXMXW./ w 5./.#X;X<XeXG.0.Z 2 O 0 g.1.f ~ ` 7.7.",
"d j.b.eX(.;.%.j 5.e.Q.G.n m G.G.#X%XcXMX9XF.6.e.e.o.S V E ] 9.C.[.OX<X@X#X%XpXCXVXrXm O $ { V.D.@X>XI.X.~ J 0 s U.'.G.l L A ] 5.",
"A.{.sXmXfXI.v.X.e.Q.(.v.p s 4.X.V.*.H.v.n 1.h.h.h.} 6 U ! ` e # k.}.>X*X>X$X;XL.G.X.$ o 6 ~ 3.;.*.m h J ! 0.=.S.$X=X).+.f f *.Z.",
"E.*XaXMXZX6Xv.4.h.^.[.|.J.#.] 6 ; > j  .j 5.Q.5X~.H 3 A ^ _ S ; y C.R.OX|.K.A.V. .8 2 V ` ` R J S w A ` q.u.F.XX,XR.W.:.v C.{.@X",
"R.E.*X,XMX>X3Xg.`.7XuX<X#Xr.` M % 8 / ) $.1.2X2Xb % $ q / 8.9.;.{ $.d.G.c.c | F r L 4.w.9.{ O $ 1 4 ! q.u.).>XBX<XA.d.d.P.%XoXR.",
"R.R.K.XX>XxXS.C.U.#X,XvX#Xd./ J @.3.q.d.<.G.z 9 - > : h -.E.E./.c 4.7.P 8 B A J 2.d.~.E.'.c.@ * 4 U 7.,.P.fXPXSX#X-.s.!.uXSXnX=X",
"S.C.C.A.R.XXS.v Z.D.,XzXJ.>.t.h.tXY.p.W.G.;.0 8 F w.d.U.oX+XOX}.v.:.9./ 5 4 N K T.&XhX+XgXjXi w U ! i.W.@XnXJXqXF.t.d.R.eXzX0X[.",
"C.A.U.Y.E.XXv f O.r./.K.l.*.~.:XnX$.4.&.+.0.K 8 5.`.tX>XSXHX.XS.b.L.W.@.> & C 9.sXPXPXvXGX Xz.P ! 7.Y.E.tX8Xb.x @.i.Y.*X*X.X[.x.",
"R.Y.E.E.oXA.g P ` ] @.k y x :.sXVXJ % = ^ ` K y ].AXHXvXSXAX.XA.A.U.%Xx.# & A p.aXDXDXFXHXm.z P ` p.'.*X{.v h ^ ] f.&XhX,X,XR.R.",
"<X>X,X@X}.g o.! ! 3 = 3 B K ` Q ~ y X * Q ` 7 u ;XBXqX9XVXKXVXL.=XsXHXuXx A ! y.|.9XjXjXqXp f ^ ] p.^.J.u @ S W ] u.#XBXAXBX,XpX",
"HXSXZXJ.m G 7.7.L + : A E ` / M J u.k f / e @ i $XzXN.J.eXbXHX#XtXfXFX Xc ` Z s A.D.@X[.n.i G ! ` f # + + = R W 0 i }.SXHXHXHXZX",
"UXJX[.%.} 0.f.f.U.z.:.9.]  .9 S 7.].tX,.o.w y z.#X6Xx.$XhXBXSX0XCXAXuX[.>.P * t (.;X%XS.y 0 Q W ! = . X 3 Z W Y q n yXIXIXGXPXUX",
"6Xv...' / a.&X].=XrX%X~.r.c y S 9.].-XV.| F } U.'.-X&X*XbXBXzX8XrXuXXXXX*.F = e ,.W.=.u - A W E Y < X 7 7.7.] ~ B { /.SXlXN.9X.X",
";.2._ ' f.&XKXsXsXfXwX_.>.%.s r $.iXbX;XU.+.@.W.dXKXKXHXPXxXyXuXpXhXvX#Xm e 1 A 3.3.O.> 1 N Y C C < , Q.`.Y.T.6.K K 6.(.M.j.v V.",
"! Z J @.].mXKXfX4X3X6Xc.<.| 9 > *.1XhXbX<XP.:.W.sXCXPXmXAX9X.X X{.,XvX|.*.L Y E ! ` ` S 5 < N C ! D m fXnX:XcX_.2.` ^ 2.l ..O./ ",
"M 6 H Y.1XdXwX3XG.<.p t h F > - *.cXHXGXvXI.&.g.5XsXfXFXFXN.S.{.XX1XpX7X;.^ W ! _ 7.9...s : M ! ] T.uXCXkXvXHXrX$.` U Y Z ( ^ K ",
"S Z I !.iX8XM.m 1.r - % L T M & 6.1XAXHXZX8Xu.e.y.!.:XBXxXN./.,XE.;X<XuX:.J Y ` 9.~.'.G.Z. .( a.].sXSXFXwX6XnX.X&._ M T ^ 6.;.r ",
"P _ ] s.m # t k #.w % < R ! R 5 ' d.{..X0XI.1.6.w.W.iXPXlX[.@XnXeXuXdXwX<.w _ a.].:X$XP.Z.6.f.tXfXwXnXDXwX[.}.K.| w $ 7 s v v.l ",
"3.! ! = + + , H ) T ^ ' 7.7.( q K ' +.D.uX7Xm } 5.<.3X8Xj.l.#XyXrX_.6Xc.b o.f.].FXAX).>.O.2.~.uXm.n.8XFXkX8XD.Z.a . . t C. X8XF.",
"} R 4   . : D Q _ ] a.T.U.U...d D 7.O.>.V.v.z %.,.m c l b z m P.H.v m ..g.!.sXmXAXuX<.0 3 F T.J.p m *XbXjXb.C.+.7 + z (.cXPXMXJ.",
"o.6 X   - H _ ` ] a.'.&X/.A.C.U.R.d.L L } | j c <.s S K K e r @.r ,  .e.~.5XrX6XM.# + X % r '.dX8X%XhXHXjXc.a w 7 g tXKXIXIXuX[.",
"s % X - X.0._ _ G U.pXBX>XD.E.+XgX#Xk q B D j l } e T ! Z V T ` M 2 ) e.!.I.c.y ; O * & 5 O.&XAXwX<XhX>Xv.y 8 Z ~ a.iXHXIXJXN.x.",
"h 2 2 L 0.] Q B a A.,XcX#XD.XXgXgX{.v F B B 7 w L ( ] ^ w V ! ! Z 3 ) #.m v b e B M 4 M A I G.kXM.S.z.l.k 7 S _ 7.E.bXGXDXkXN.z.",
"e q K [ ] ~ M 6 e A.<XbXxX>XoX+X,X<XA.O.Q T L 8.9.a.a.g.j o.[ T & $ 0 j ..O./ [ ] 7.D U W M : y t s f L A 2 B ] 9.&XNXGXSXkXN.v ",
"/ 2.a.h.5.D V T P :./.+X,XXX,XhXDXVXH.3._ ] 9.f.Q.-X&X&XZ.5.0.K = 7 H I ) ` e.d.d.!.%.I E 4 $ 2 L 2.' ` R 3 J ` 5.L.yXvXwXn.n { "
};
